<?xml version="1.0" encoding="UTF-8"?>
<!DOCTYPE svg PUBLIC "-//W3C//DTD SVG 1.1//EN" "http://www.w3.org/Graphics/SVG/1.1/DTD/svg11.dtd">
<!-- Creator: CorelDRAW 2018 (64 Bit) -->
<svg xmlns="http://www.w3.org/2000/svg" xml:space="preserve" width="162.56mm" height="91.4622mm" version="1.1" style="shape-rendering:geometricPrecision; text-rendering:geometricPrecision; image-rendering:optimizeQuality; fill-rule:evenodd; clip-rule:evenodd"
viewBox="0 0 16255.98 9146.22"
 xmlns:xlink="http://www.w3.org/1999/xlink">
 <defs>
  <style type="text/css">
   <![CDATA[
    .fil0 {fill:#FEFEFE}
    .fil3 {fill:#96989A}
    .fil6 {fill:#373435}
    .fil2 {fill:#373435}
    .fil8 {fill:#DF1E48}
    .fil7 {fill:#FDBA12}
    .fil1 {fill:#FDBA12}
    .fil9 {fill:#373435;fill-rule:nonzero}
    .fil5 {fill:#373435;fill-rule:nonzero}
    .fil4 {fill:#FDBA12;fill-rule:nonzero}
   ]]>
  </style>
 </defs>
 <g id="Camada_x0020_1">
  <metadata id="CorelCorpID_0Corel-Layer"/>
  <polygon class="fil0" points="-0,0 16255.98,0 16255.98,9146.22 -0,9146.22 "/>
  <polygon class="fil1" points="-0,6294.15 16255.98,6294.15 16255.98,6649.55 -0,6649.55 "/>
  <path class="fil2" d="M8589.09 3814.8l0 -52.11c2.37,-7.95 6.23,-14.87 11.79,-20.44 96.39,-46.25 276.87,153.07 333.01,209.24l206.03 218.33c135.21,125.9 143.98,51.41 290.55,24.79 170.26,-30.88 211.9,13.85 295.36,120.15 22.18,28.27 40.69,52.95 63.02,78.46 37.48,42.86 92.82,124.19 132.28,150.61 30.28,-7.05 66.53,-23.81 94.82,-34.85 48.31,-18.83 39.43,-7.4 66.97,-50.91 60.11,-95.02 160.9,-157.54 248.95,-222.57 48.18,-35.55 95.23,-60.25 143.29,-92.46 0,-163.7 -21.74,-333.84 122.58,-419.67 50.25,-29.91 319.06,-153.49 372.53,-157.93 0,-174.53 -8.1,-416.85 16.75,-584.45 23.48,-158.42 33.44,-192.07 -21.88,-329.89 -157.49,-392.43 -55.68,-277.32 -42.03,-441.31 -87,-23.22 -76.83,-126.22 -54.4,-219.42 25.87,-107.29 115.13,-79.24 147.52,-147.18 83.53,-175.27 3.82,-386.92 263.47,-644.21 53.99,-53.49 87.2,-99.86 141.22,-153.49 158.86,-157.72 303.2,-89.46 429.99,-159.4 139.05,-76.67 325.62,-78.38 505.53,-38.87 186.37,40.89 190.23,91.36 299.7,160.01 143.09,89.71 313.06,134.83 366.88,375.76 10.02,44.71 4.99,86.3 11.45,141.82 14.53,124.99 57.65,156.13 57.65,378.51 50.37,13.44 154.48,98.2 198.68,131.37 74.94,56.18 134.53,77.46 132.8,187 -1.9,119.54 -74.32,133.37 -173.39,158.01 -311.47,77.49 -324.03,33.1 -344.46,138.83 -11.38,58.88 -14.85,80.66 -14.17,150.9 1.7,172.42 -46.77,240 -110.24,373.05l-125.38 357.93c83.3,44.07 79.97,85.85 188.48,83.58 75.88,-1.6 157.27,-26.9 243.03,-8.21 41.06,8.93 67.8,30.44 110.71,30.33 35.42,-0.11 64.14,-16.02 104.75,-24.56 74.72,-15.65 144.61,-16.78 230.71,-29.42 52.09,-7.67 187.59,10.89 240.8,20.34 69.31,12.33 143.27,34.46 203.29,56.08 153.95,55.5 208.74,99.8 313.81,204.86 109.06,109.06 163.53,172.62 204.92,325.55 33.03,122.04 154.5,15.45 301.66,358.47 9.24,21.56 13.13,26.38 21.74,48.96 63.9,167.37 87.68,21.08 320.37,257.26 28.94,29.38 34.78,35.03 68.86,60.81 108.99,82.38 53.74,199.32 76.42,324.37 7.65,42.03 25.91,41.37 53.43,76.22 91.38,115.67 134.02,401.81 51.65,514.15 -61.08,83.27 -14.06,93 -2.29,203.67 6.9,64.7 -28.47,155.05 -52.21,201.23 -161.94,315.06 -316.76,117.35 -538.68,251.13 -312.64,188.46 -452.9,314.44 -798.9,482.55l2257.47 0 0 2308.44 -16255.98 0 0 -2308.44 9920.93 0c-16.88,-36.9 -7.28,-10.48 -68.11,-44.84 -170.45,-96.21 -207.38,-227.15 -240.02,-420.1 -22.13,-130.92 -70.45,-456.22 60.79,-544.11l-191.66 -244.5c-68.88,-77.2 -121.97,-155.63 -189.19,-235.16l-191.79 -232.6c-186.21,-235.51 -320.99,-293.57 -173.83,-552.95 42.89,-75.62 58.36,-48.02 29.46,-138.89 -39.85,-125.3 -173.81,-275.57 -254.66,-382.63 -24.66,-32.56 -97.04,-145.75 -112.83,-227.2z"/>
  <path class="fil1" d="M9943.87 5828.74c-21.51,-44.66 -252.45,-319.33 -304.72,-384.15l-458.94 -566.87c-96.87,-129.65 -223.92,-217.88 -165.1,-313.79 62.98,-102.68 159.09,-179.16 282.49,-224.93 119.45,-44.31 154.28,29.13 207.52,95.72l917.5 1133.86c43.46,53.09 75.94,134.15 194.58,59.76 -66.57,-102.35 -800.18,-989.97 -923.82,-1145.76 -127.17,-160.26 -158.16,-262.9 -436.74,-148.71 -82.34,33.76 -159.31,97.85 -204.03,149.79 -62.82,72.97 -113.68,120.76 -40.59,219.93 159.07,215.85 447.49,535.79 611.85,755.97l231.65 287.08c31.25,37.67 36.25,63.1 88.35,82.1zm1914.47 -4822.84l16.8 8.9c2.01,0.85 6.13,2.93 8.64,3.94 2.5,1 6.05,2.42 8.87,3.46 8.34,3.09 25.53,7.73 36.21,11.07 116.97,36.45 244.12,125.82 299.59,219.47 37.15,62.72 0.2,96.97 -38.83,128.31 -70.42,-130.46 -149.84,-240.45 -301.55,-296.05 -159.39,-58.41 -384.39,-27.89 -455.76,99.25 2.75,1.58 7.45,-0.18 8.91,3.32l34.98 6.12c9.79,-0.03 30.39,-5.11 34.14,-6.36 -367.5,66.81 -366.26,610.91 -397.75,687.3 -59.96,145.44 -143.23,74.34 -162.83,211.01 183.52,-38.72 355.49,-118.24 555.8,-159.13 195.51,-39.9 422,-72.52 625.33,-80.32 155.77,-5.97 643.58,171.72 815.32,244.04 86.15,36.27 171.58,88.1 250.51,113.99 -20.56,-101.15 -332.84,-217.52 -418.34,-252.77 -126.84,-52.31 -132.06,-33.17 -223.87,-106.04 -113.19,-89.85 -62.13,-98.23 -67.45,-272.19 -2.55,-83.5 -20.32,-82.97 14.14,-148.71 28.75,-54.86 33,-72.21 6.55,-133.47 -104.9,-242.97 -378.3,-404.84 -649.41,-285.14zm930.73 469.13c135.82,-110 -98.54,-278.82 -169.23,-298.27 148.45,172.38 130.71,236.79 169.23,298.27zm-1377.57 5818.24c18.67,-38.46 16.9,-19.08 28.18,-66.54 -82.58,18.21 -48.75,49.06 -145.18,28.15 -51.07,-11.08 -63.5,19.95 -107.05,46.91 -67.8,41.95 -171.04,84.2 -235.81,128.94 80.65,-8.76 171.82,-46.73 234.46,-83.62 128.69,-75.8 47.55,63.46 225.4,-53.84 91.72,41.74 393.06,116.78 519.42,105.09 159.63,-14.78 228.8,-213.19 323.14,-295.49 -47.74,8.49 -67.53,28.14 -93.65,52.22 -325.92,300.53 -387.42,137.31 -748.91,138.18zm3758.79 -1278.23c55.29,-113.73 -34.72,-320.89 -63.14,-440.06 -15.73,169.83 98.77,350.72 -45.37,461 -70.9,54.25 -132.83,36.44 -230.4,51.85 -152.83,24.15 -728.28,381.78 -896.95,471.64 -220.56,117.48 -931.86,366.73 -1216.38,434.09l-438.75 108.67c465.4,-18.1 1442.36,-318.53 1767.82,-512.36l716.65 -415.06c175.85,-98.38 306.91,45.14 406.52,-159.77z"/>
  <path class="fil0" d="M9272.79 4630.37c12.07,-52.09 -23.87,-15.62 33.87,-48.26 19.42,-10.98 19.77,-8.44 37.91,-11.68 -45.54,37.44 -0.51,37.05 -71.78,59.94zm-253.55 -464.44c-87.4,-106.97 -292.3,-371.34 -415.85,-388.31 -4.74,120.97 212.57,372.91 298.07,482.87 47.23,60.73 57.5,88.65 96.2,162.13 40.33,-35.76 105.03,-95.01 162.21,-123.9 -61.52,-71.84 -31.95,0.24 -140.63,-132.79zm2916.15 -1725.55c-0.03,-17.94 10.41,4.66 -4.83,-19.3l-117.83 7.78 -37.15 -52.53c-27.43,-26.03 -85.78,-59.38 -112.7,-95.8 48.39,-44.32 34.64,-47.05 126.26,-47.05 135.53,0 221.78,48.34 344.55,104.03 49.32,22.37 51.38,16.2 52.85,74.74l-255.94 42.69c2.77,-31.08 4.83,18.71 4.79,-14.56zm-713.13 -82.06c-50,-57.37 -69.71,-40.51 -128.08,-76.9 2.38,-3.23 33.61,-12.74 47.48,-13.21 84.59,-2.94 117.21,62.55 136.85,99.03 27.87,51.81 -11.55,8.35 46.9,39.05 -26.27,30.29 -35.95,45.43 -52,86.42 20.61,43.03 20.17,25.52 46.75,59.51 -64.96,-5.9 -55.27,7.31 -106.19,8.15 -36.15,-42.41 -63.97,-69.98 -60.3,-151.63 44.39,-30.89 42.11,-11.54 68.59,-50.42zm5.12 2271.94l-2.66 52.9c74.84,-89.19 255.84,-851.63 318.74,-902.65 30.03,-24.36 0.42,-2.89 31.51,-17.18 80.37,-19.28 239.72,-92.99 322.2,-126.14 -38.77,-25.62 -68.12,-14.2 -125.83,-53.73 -42.61,-29.18 -58.66,-55.67 -111.86,-78.58 -18.27,25.86 -18.21,30.42 -25.4,70.49l-21.74 85.59c-61.26,-36.7 10.61,-53.84 -127.41,-274.56 -36.38,-58.19 -139.48,-200.42 -143.73,-259.66 218.58,162.62 71.87,163.88 497.86,306.45 115.49,38.65 248.02,83.89 299.33,-1.99 97.69,-163.52 -40.09,-142.97 -77.04,-253.6 99.16,9.7 155.28,28.98 150.78,-34.87 -2.49,-35.57 -8.99,-33.97 -33.97,-48.5 -95.73,-55.71 -190.82,-15.57 -236.83,-63.4 78.36,-39.63 210.57,14.23 294.71,3.08 -1.57,-77.42 -39.18,-70.87 -39.23,-70.89 -13.8,-5.81 2.92,36.49 -13.02,-15.32 -29.5,-95.89 28.05,-57 -60.86,-120.91 58.18,-8.48 178.07,20.29 214.32,-7.35 9.32,-7.98 28.06,14.36 12.74,-99.27 -8.3,-61.55 -11.18,-208.31 -37.74,-255.05 -26.3,-46.31 -8.66,11.87 -28.48,-43.13 34.15,-37.85 52.46,-22.28 95.06,-70.73 -35.4,-228.14 -722.09,-430.96 -771.76,-313.21 -42.09,99.75 37.36,47.17 -78.23,112.03 -53.44,29.98 -45.12,84.31 -45.12,155.09 -214,8.56 -51.38,0.48 -261.77,-93.78 -129.43,-58.01 -176.23,-7.08 -218.09,98.33 -30.32,76.36 32.97,203.43 63.35,269.3 58.55,126.98 69.03,128.16 211.05,106.22 -7.88,123.25 -16.03,148.39 -134.11,163.39 -47.07,315.45 -92.96,1035.67 28.49,1345.14 69.71,177.66 37.2,244.07 54.74,436.49zm2161.6 939.7c11.1,-111.02 213.69,-269.73 298.44,-341.64 57,-48.37 113.85,-87.65 179.37,-139.25 102.85,-80.97 163.25,-83.03 180.66,-144.43 -42.63,-60.16 -142.07,-59.04 -218.98,-59.04 -337.22,0 -530.85,197.85 -666.95,382.09l-383.4 525.14c-36.69,53.57 -12.93,51.84 -17.1,87.15 -175.18,52.11 -322.09,87.98 -481.28,156.58l-446.53 190.78c5.09,35.52 15.93,47.87 27.73,73.11 -169.94,-68.81 -353.21,-164.81 -514.53,-252.88 -103.35,-56.45 -396.19,-200.91 -475.41,-278.89 -200.35,-197.21 -447.97,13.29 -535.65,44.57 -181.49,64.75 -419.98,77.25 -597.41,151.99 3.3,121.69 123.67,251.73 259.44,290.96l1.47 -33.44c-0.05,-1.53 -1.68,-2.2 -1.43,-3.84l58.89 6.92c1.8,-3.32 3.18,-7.83 4.26,-10.46l19.31 -44.23c109.19,47.02 155.45,13.91 260.5,-22.89 61.29,-21.46 178.65,-57.66 221.05,-95.55 -26.17,-66.75 -67.23,-52.91 -88.82,-125.66 95.49,0 253.1,-23.99 313.39,18.12 -32.42,82.98 -36.02,-38.88 -181.29,196.1 -38,61.46 -30.97,50.23 -106.61,82.67 -115.77,49.64 -568.49,233.77 -540.64,363.38 17.95,83.51 180.15,303.57 321.94,195.07l409.61 -320.96c19.06,-15.32 34.01,-23.92 52.75,-41.28 33.08,-30.63 23.38,-12.94 33.81,-53.55l-67.21 -19.19c22.74,-70.78 71.04,-70.46 156.75,-87.59 62.73,-12.51 139.63,-30.27 204.97,-31.14 110.72,172.56 -61.78,98.04 -136.12,171.22 -31.9,31.38 -49.81,71.8 -86.31,102.38 -35.98,30.11 -76.87,33.68 -117.73,59 -79.49,49.25 -405.83,271.71 -431.95,310.98 -23.64,95.86 73.95,147.59 127.31,190.6 95.51,76.95 135.1,34.02 218.73,-21.68 73.63,-49.04 333.26,-223.05 366.58,-268.84 -49.04,-19.34 -96.27,-34.74 -127.9,-71.29 14.41,-13.71 -14.98,-2.31 28,-17.55 32.58,-11.57 262.81,-30.91 324.92,29.33 -30.76,60.07 -85.17,80.37 -140.77,119.41 -89.86,63.08 -56.63,85.32 -109.01,138.35 -42.28,42.82 -253.35,174.27 -274.95,233.39 -22.8,62.37 61.22,134.67 103.33,142.16 43.55,7.75 139.59,-43.81 178.93,-62.26l245.23 -131.44c45.66,-28.63 48.49,-17.23 53.21,-62.38 -32.57,-19.12 -72.05,-11.54 -114.34,-12.96 29.4,-29.63 103.83,-59.1 144.26,-89.15 27.16,-20.19 42.98,-27.36 70.52,-47.56 34.72,-25.48 62.78,-95.34 176.44,-17.82 42.69,29.12 13.16,46.04 32.08,72.12 75.49,-6.52 41.99,-30.85 112.1,-47.41l12.61 89.72c128.87,52.56 328.01,46.25 364.49,0 28.58,-78.76 -28.17,-256.39 -70.73,-294.98 115.1,-1.49 279.57,252.56 413.45,1.81 44.02,-82.46 129.63,-74.99 232.06,-86.74 124.01,-14.23 145.92,-37.05 247.02,-62.03 -40.2,53.92 -91.96,71.69 -106.09,138.82 239.55,15.28 781.91,-250.36 950.54,-352.62 135.72,-82.31 717.63,-451.03 767.43,-531.38 -92.14,-67.29 -153.78,-9.3 -252.25,32.91 -283.49,121.53 -472.55,198.86 -814.06,229.92 54.58,-41.75 439.81,-227.96 617.97,-355.71l540.66 -409.24c-173.86,-412.58 -744.75,-34.81 -940.5,162.87 -30.31,-31.37 -23.11,-49.47 -61.32,-56.04 -55.18,-9.49 -149.66,85.7 -224.94,115.37zm-3324.2 115.71c-8.98,-23.33 -53.73,-78.36 3.64,-85.9l38.33 8.29c76.54,5.11 -17.36,-95.67 61.7,-76.92 35.58,8.42 21.54,56.61 85.85,2.9 -17.2,-33.11 -51.78,-76.52 -80.1,-95.75 -135.61,43.83 -154.24,108.83 -224.47,172.95 17.13,48.13 49.71,78.51 85.54,111.26l29.51 -36.83zm-79.74 -271.2c38.22,-40.58 61.05,-44.21 105.7,-80.83 -14.25,-37.64 -17.15,-30.81 -46.22,-59.21 -89.89,32.9 -158.03,115.59 -198.53,212.45 14.93,34.82 43.16,69.27 65.86,93.16 217.63,-177.49 74.42,-65.3 255.09,-154.83l-38.54 -65.64 -143.36 54.9zm-176.28 26.42c47.31,-47.81 35.56,-66.02 93.87,-107.44 36.24,-25.75 82.74,-55 132.92,-67.15l-49.97 -62.6c-107.94,34.46 -174.24,99.31 -222.74,177.09 7.3,16.7 9.19,22.95 20.33,37.02 27.44,34.62 3.82,8.94 25.59,23.08zm-123.19 -289.39c-14.98,31.43 -39.48,62.52 -22.89,115.16 36.27,115.02 138.79,64.85 161.65,-11.24 20.9,-69.5 -25.7,-86.99 31.59,-127.93l-1.16 45.73c6.78,20.9 26.36,31.72 36.52,39.46 118.43,-53.7 14.54,-159.67 -67.27,-147.61 -146.14,21.57 -6.55,148.82 -110.19,197.34 7.24,-43.81 61.08,-75.77 -28.25,-110.91zm-143.71 -32.55c17.95,25.2 53.03,70.42 78.29,94.44 64.27,-47.03 24.22,-58.68 22.12,-67.58 -9.44,-39.9 -10.45,-55.16 30.4,-50.6 43.99,4.92 -25.59,23.25 37.63,7.31 43.87,-11.07 18.67,-7.92 21.04,-26.27 6.61,-51.25 -35.38,-7.48 18.44,-58.62 59.65,16.53 16.81,63.24 96.04,9.51 -21.99,-37.09 -47,-63.41 -67.1,-96.05 -106.64,22.82 -198.56,108.1 -236.86,187.86zm-129.68 -171.24c14.02,26.82 26.71,44.63 44.37,63.44 35.73,-31.72 47.19,-71.86 88.92,-86.13 -8.68,25.34 -47.13,64.84 -69.09,102.12l34.93 62.81c29.84,-17 63.45,-71.24 102.87,-104.45 39.29,-33.08 80.46,-56.75 135.67,-75.61 -16.98,-37.64 -19.75,-30.29 -47.18,-59.64 -65.97,12.76 -70.87,47.49 -106.07,20.57l87.52 -41.44 -40.41 -59.66c-118.4,35.65 -178.45,94.96 -231.53,177.99zm-49.12 -133.78c17.41,-48.45 -5,-6.98 27.57,-39.64 56.97,-57.13 45.9,-43.94 117.79,-83.34 3.17,41.2 15.92,11.58 -22.2,36.74 -25.46,16.8 -20.57,9.06 -42.2,29.24 -54.71,51.05 -31.32,52.15 -80.96,57zm-80.54 -22.89c104.02,203.72 153.36,70.05 196.32,36.07 35.68,-28.2 86.42,-47.89 111.49,-82.88 -4.72,-61.44 -45.48,-104.95 -88.05,-132.84 -94.51,30.69 -181.22,105.54 -219.76,179.65zm-130.56 -153.43c17.18,23.36 30.16,31.27 46.02,56.15l42.28 -37.7c-7.8,105.06 -28.03,37.38 22.86,126.36 73.64,-55.98 7.58,-93.91 210.52,-218.94 -22,-28.76 -38.97,-48.38 -65.68,-80.79 -110.98,4.11 -227.78,94.01 -256,154.92z"/>
  <path class="fil3" d="M13911.86 4541.55c159.96,-61.59 356.58,-1.94 518.68,13.37 -131.14,-162.02 -728.14,-159.49 -939.68,-65.88 -226.57,100.23 -446.07,363.55 -419.78,715.19 44.28,-42.15 128.05,-236.75 180.62,-306.05 68.2,-89.86 177.12,-131.67 316.5,-149.98 -97.64,82.85 -238.1,160.42 -291.63,275.24 180.7,-134.66 324.22,-264.87 625.3,-322.68 417.19,-80.1 532.06,30.62 813.99,78.88 -58.22,-215.68 -622.92,-226.91 -804,-238.09zm-3868.48 1265.54l-180.42 -221.01c-19.79,-25.19 -40.5,-46.34 -59.66,-70.05 -22.59,-27.98 -41.28,-54.52 -60.77,-80.99l-641.05 -796.9c44.22,-96.18 166.15,-185.61 318.28,-204.42l458.1 559.63c24.88,31.01 39.25,41.3 62.61,66.94 29.51,32.39 25.66,45.64 50.06,79.46 50.94,70.62 305.66,342.07 335.29,417.86 -76.59,46.71 -194.88,28.82 -282.44,249.48zm0 0c196.44,11.28 302.18,-59.88 434.02,-135.01l-944.28 -1170.78c-42.2,-50.76 -85.07,-112.48 -136.94,-156.46 -88.77,-11.07 -202.84,64.98 -248.59,103.78 -37.76,32.02 -165.08,132.02 -116.8,212.21l943.32 1160 69.27 -13.74zm590.54 -1394.02c-22.84,-66.12 -11.21,-421.53 11.79,-492.49 66.19,-2.51 128.69,60.74 174.05,95.57 66.36,50.95 96.07,64.79 85.25,178.46 -172.09,87.53 -192.12,188.74 -271.09,218.46zm683.68 496.2c0,204.03 11.96,454.08 -1.4,645.2 -60.93,-66.3 -84.08,-566.3 -84.08,-692.35 0,-93.18 300.05,-997.48 343.68,-1034.06 58.76,8.22 51.2,28.06 119.2,102.45l70.67 82.53c17.93,19.85 20.3,27.37 36.18,46.81 33.21,40.61 52.47,42.76 71.78,94.98 -192.54,189.33 -205.13,-62 -363.56,286.73 -30.24,66.55 -70.36,172.69 -105.6,224.42 -65.2,95.71 -86.87,90.52 -86.87,243.29zm257.37 -1145.94c-31.09,14.29 -1.48,-7.18 -31.51,17.18 -62.9,51.02 -243.9,813.46 -318.74,902.65l2.66 -52.9c-2.05,-2.72 -4.36,-6.41 -5.58,-8.55 -57,-99.93 -18.96,-160.57 -87.58,-201.42 -72.65,-43.26 -29.62,-31.28 -72.84,-79.8 -40.67,-45.64 -56.68,-5.84 -87.86,-57.67 -45.72,-85.7 53.23,-130.22 -80.89,-268.78 -84.76,-87.57 -168.42,-105.96 -204.83,-156.91 56.87,-15.98 125.69,-59.71 183.92,-88.77 125.95,-62.88 154.2,-54.55 155.69,-118.93 -36.05,9.7 -389.27,174.94 -410.02,194.39 -67.47,63.23 -30.35,439.87 -37.8,557.89l-51.77 -137.56c-58.29,25.09 -149.57,92.35 -207.59,131.06 -111.96,74.71 -119.68,84.68 -141.15,177.43l-202.95 100.86c17.12,42.79 207.35,263.77 253.88,321.31 86.31,106.74 167.79,204.87 254.12,311.78 48.08,59.54 82.87,103.95 132.13,162.56 85.92,102.28 73.66,121.55 144.75,139.99 79.36,20.57 114.33,66.28 169.2,111.77 142.45,118.09 383.06,219.95 559.59,300.91 68.85,31.58 126.57,57.6 191.52,91.45 190.29,99.17 255.5,-43.38 602.89,-166.6 127.3,-45.14 338.37,-98.78 367.92,-198.97 -72.47,-2.33 -149.93,27.22 -187.74,-29.3 -49.16,-73.47 34.58,-106.41 71.47,-133.03 80.69,-58.23 257.24,-204.31 249.94,-321.58 -3.2,-51.39 -21.32,-37.79 -38.65,-74.71 -37.4,-79.64 66.27,48.88 -44.12,-132.53 -65.84,-108.2 -87.2,-235.83 -81.12,-389.26 2.16,2.97 4.39,6.91 5.68,9.43l13.83 28.48c3.91,10.66 6.49,25.78 9.26,38.43 13.59,62.08 46.53,153.85 90.3,190.15 10.06,-156.37 94.82,-447.49 201.79,-506.21 -10.01,68.51 -49.14,127.1 -72.28,195.5 -51.43,151.97 -11.08,594.75 109.24,640.42 62.68,-120.22 -5.61,-467.7 321.44,-704.67 307.82,-223.05 552.73,-140.97 807.96,-203.3 29.78,-136.62 -205.21,-104.94 -402.72,-116.75 96.29,-69.03 225.3,-31.94 331.77,-9.52 31.73,6.68 95.51,19.34 111.15,-6.91 18.57,-87.4 -164.89,-125.11 -262.1,-123.65 -129.97,1.97 -251.09,47.94 -368.95,45.84 61.63,-217.1 368.98,-50.18 482.6,-76.63 19.08,-77.65 -1.63,-138.77 -42.19,-184.36 -33.58,-37.73 -78.85,-75.68 -127.18,-108.86 -408.4,-280.45 -700.11,-139.8 -1064.83,26.61 40.91,-128.71 70.41,-87.02 162.99,-129.76 -70.04,-82.25 -195.93,33.06 -238.39,77 -201.44,208.48 -256.02,69.7 -396.36,192.86 -40.1,35.2 -64.03,48.25 -99.42,89.28 -41.01,47.52 -142.42,153.71 -196.43,186.1 -17.74,-35.57 -67.91,-92.5 -98.04,-126.61 -62.27,-70.49 -134.58,-171.24 -200.31,-235.77 -46.56,-45.74 -31.23,-47.99 -90.82,-75.34 -3.3,-1.52 -15.01,-6.49 -17.47,-7.59 -2.02,-0.9 -7.27,-0.18 -8.73,-4.03 -1.47,-3.87 -5.99,-2.41 -8.73,-4.1z"/>
  <path class="fil4" d="M1326.27 7894.3l-89.58 343.46 -53.57 0 -88.45 -264.79 -87.8 264.79 -53.25 0 -90.53 -343.46 59.97 0 63.54 265.95 85.92 -265.95 47.68 0 88.12 265.95 59.97 -265.95 57.98 0zm515.71 0l-89.58 343.46 -53.58 0 -88.44 -264.79 -87.8 264.79 -53.25 0 -90.54 -343.46 59.97 0 63.54 265.95 85.93 -265.95 47.68 0 88.12 265.95 59.97 -265.95 57.98 0zm515.71 0l-89.59 343.46 -53.57 0 -88.44 -264.79 -87.8 264.79 -53.26 0 -90.53 -343.46 59.97 0 63.54 265.95 85.93 -265.95 47.67 0 88.13 265.95 59.96 -265.95 57.99 0zm156.4 343.46l-73.74 0 0 -87.6 73.74 0 0 87.6zm422.12 0l-57.99 0 0 -195.68c0,-15.75 -0.93,-30.56 -2.71,-44.42 -1.9,-13.87 -5.26,-24.69 -10.2,-32.46 -5.15,-8.61 -12.6,-15.03 -22.26,-19.22 -9.67,-4.2 -22.17,-6.29 -37.61,-6.29 -15.75,0 -32.35,3.87 -49.57,11.65 -17.33,7.77 -33.83,17.75 -49.68,29.83l0 256.59 -57.98 0 0 -478.94 57.98 0 0 173.72c18.06,-15.02 36.75,-26.69 56.08,-35.08 19.33,-8.4 39.17,-12.61 59.55,-12.61 37.2,0 65.55,11.14 85.09,33.51 19.52,22.36 29.3,54.5 29.3,96.52l0 222.88zm172.56 -401.43l-65.54 0 0 -59.86 65.54 0 0 59.86zm-3.77 401.43l-57.99 0 0 -343.46 57.99 0 0 343.46zm418.03 -175.72c0,27.83 -4,53.36 -12.08,76.36 -7.98,23.1 -19.22,42.65 -33.83,58.62 -13.65,15.22 -29.62,26.88 -48,35.17 -18.38,8.31 -37.91,12.5 -58.4,12.5 -17.95,0 -34.13,-2 -48.62,-5.87 -14.49,-3.9 -29.21,-9.88 -44.21,-18.08l0 143.69 -57.99 0 0 -470.13 57.99 0 0 36.03c15.43,-12.92 32.76,-23.74 51.98,-32.46 19.22,-8.72 39.71,-13.02 61.45,-13.02 41.59,0 73.94,15.65 97.04,46.96 23.11,31.19 34.67,74.67 34.67,130.23zm-59.88 1.27c0,-41.5 -7.04,-72.37 -21.2,-92.86 -14.19,-20.47 -36.04,-30.76 -65.44,-30.76 -16.59,0 -33.4,3.55 -50.21,10.7 -16.92,7.25 -32.98,16.59 -48.41,28.37l0 194.51c16.48,7.45 30.56,12.51 42.42,15.14 11.77,2.62 25.21,3.98 40.23,3.98 32.24,0 57.45,-10.83 75.51,-32.57 18.08,-21.74 27.1,-53.87 27.1,-96.51zm437.36 8.71l-253.35 0c0,21.01 3.17,39.39 9.56,55.04 6.31,15.65 15.02,28.46 26.15,38.44 10.61,9.78 23.33,17.12 37.93,22.07 14.7,4.93 30.88,7.34 48.52,7.34 23.33,0 46.85,-4.63 70.58,-13.97 23.63,-9.34 40.55,-18.6 50.62,-27.62l3.06 0 0 63.11c-19.44,8.2 -39.39,15.03 -59.67,20.6 -20.26,5.56 -41.59,8.29 -63.95,8.29 -56.93,0 -101.47,-15.44 -133.41,-46.21 -32.03,-30.77 -48,-74.57 -48,-131.29 0,-56.09 15.35,-100.62 46.02,-133.49 30.67,-32.99 70.99,-49.48 120.99,-49.48 46.43,0 82.14,13.56 107.24,40.55 25.11,27.1 37.71,65.43 37.71,115.22l0 31.4zm-56.09 -44.12c-0.2,-30.24 -7.88,-53.66 -23,-70.26 -15.02,-16.59 -38.03,-24.9 -68.81,-24.9 -31.08,0 -55.77,9.15 -74.15,27.31 -18.36,18.28 -28.78,40.86 -31.3,67.85l197.26 0zm358.38 -70.58l-3.06 0c-8.72,-1.98 -17,-3.47 -25.2,-4.31 -8.1,-0.94 -17.65,-1.35 -28.78,-1.35 -17.85,0 -35.19,3.98 -51.79,11.86 -16.68,7.88 -32.65,18.06 -48.09,30.56l0 243.68 -57.98 0 0 -343.46 57.98 0 0 50.73c22.99,-18.47 43.27,-31.51 60.92,-39.18 17.54,-7.66 35.49,-11.55 53.77,-11.55 10.09,0 17.32,0.21 21.84,0.75 4.52,0.52 11.35,1.46 20.39,2.93l0 59.34zm337.67 -120.99l-63.64 0 0 -59.86 63.64 0 0 59.86zm-5.03 401.43l-57.99 0 0 -295.87 -160.06 0 0 295.87 -57.98 0 0 -294.93 -39.07 0 0 -48.53 39.07 0 0 -15.12c0,-39.71 10.29,-70.27 30.78,-91.58 20.58,-21.33 49.68,-31.94 87.28,-31.94 12.7,0 24.26,0.64 34.65,2 10.29,1.35 19.76,2.84 28.16,4.2l0 53.03 -3.06 0c-5.77,-1.68 -14.06,-3.55 -24.99,-5.66 -10.82,-2.11 -19.74,-3.14 -26.78,-3.14 -24.79,0 -42.74,5.44 -53.57,16.48 -10.91,10.92 -16.38,30.77 -16.38,59.45l0 12.28 219.94 0 0 343.46zm412.77 0l-73.31 0 -96.73 -131.92 -98 131.92 -67.22 0 133.81 -171.31 -132.54 -172.15 73.2 0 96.22 129.72 96.94 -129.72 67.63 0 -134.74 169.11 134.74 174.35zm343.36 0l-57.97 0 0 -36.76c-5.16,3.46 -11.98,8.39 -20.7,14.59 -8.72,6.31 -17.11,11.26 -25.31,15.03 -9.67,4.73 -20.69,8.61 -33.19,11.88 -12.38,3.14 -27.1,4.71 -43.79,4.71 -30.88,0 -57.14,-10.29 -78.56,-30.78 -21.55,-20.58 -32.26,-46.73 -32.26,-78.56 0,-26.15 5.57,-47.25 16.7,-63.33 11.15,-16.16 27.1,-28.88 47.8,-38.12 20.8,-9.25 45.89,-15.45 75.1,-18.81 29.3,-3.25 60.7,-5.66 94.21,-7.34l0 -9.04c0,-13.13 -2.32,-24.15 -6.93,-32.76 -4.62,-8.72 -11.14,-15.56 -19.75,-20.49 -8.19,-4.74 -18.06,-7.99 -29.51,-9.56 -11.46,-1.68 -23.42,-2.52 -35.93,-2.52 -15.13,0 -32.03,2 -50.62,6.09 -18.69,4.09 -37.91,10.08 -57.78,17.85l-3.03 0 0 -58.7c11.23,-3.06 27.61,-6.41 48.94,-10.09 21.32,-3.68 42.32,-5.56 63.03,-5.56 24.26,0 45.26,1.98 63.22,5.98 17.97,3.99 33.51,10.81 46.64,20.48 12.91,9.45 22.79,21.63 29.51,36.65 6.82,15.03 10.18,33.62 10.18,55.77l0 233.39zm-57.97 -84.65l0 -96.22c-17.54,1.06 -38.24,2.63 -61.96,4.63 -23.85,2.11 -42.66,5.04 -56.53,9.04 -16.59,4.71 -29.92,12.07 -40.12,22.04 -10.18,9.99 -15.32,23.85 -15.32,41.29 0,19.84 5.87,34.76 17.75,44.74 11.86,9.97 29.92,15.03 54.18,15.03 20.28,0 38.66,-4 55.47,-11.88 16.7,-7.99 32.24,-17.54 46.53,-28.67zm263.83 84.65l-73.74 0 0 -87.6 73.74 0 0 87.6zm388.72 -21.52c-19.22,9.13 -37.61,16.27 -54.93,21.42 -17.22,5.14 -35.71,7.66 -55.15,7.66 -24.78,0 -47.57,-3.66 -68.26,-10.92 -20.7,-7.25 -38.44,-18.27 -53.14,-33.08 -15.02,-14.7 -26.58,-33.4 -34.78,-55.98 -8.18,-22.48 -12.29,-48.84 -12.29,-79 0,-56.18 15.45,-100.3 46.32,-132.22 30.78,-32.03 71.53,-48 122.15,-48 19.65,0 38.98,2.73 57.99,8.28 18.9,5.47 36.33,12.29 52.09,20.28l0 64.08 -3.04 0c-17.65,-13.56 -35.82,-23.96 -54.63,-31.3 -18.79,-7.25 -37.06,-10.93 -54.93,-10.93 -32.76,0 -58.7,11.02 -77.61,32.97 -19.01,21.96 -28.46,54.31 -28.46,96.84 0,41.29 9.23,73.12 27.83,95.27 18.6,22.17 44.64,33.3 78.24,33.3 11.78,0 23.64,-1.47 35.71,-4.52 12.1,-3.04 23.01,-7.04 32.57,-11.86 8.39,-4.31 16.38,-8.83 23.74,-13.56 7.34,-4.72 13.24,-8.83 17.54,-12.29l3.04 0 0 63.56zm366.78 -150.09c0,55.96 -14.38,100.09 -43.06,132.54 -28.69,32.36 -67.11,48.52 -115.22,48.52 -48.64,0 -87.17,-16.16 -115.86,-48.52 -28.57,-32.45 -42.86,-76.58 -42.86,-132.54 0,-55.88 14.29,-100.11 42.86,-132.57 28.69,-32.44 67.22,-48.73 115.86,-48.73 48.11,0 86.53,16.29 115.22,48.73 28.68,32.46 43.06,76.69 43.06,132.57zm-59.87 0c0,-44.23 -8.71,-77.1 -26.04,-98.63 -17.44,-21.54 -41.5,-32.24 -72.37,-32.24 -31.31,0 -55.68,10.7 -72.9,32.24 -17.33,21.53 -25.94,54.4 -25.94,98.63 0,42.85 8.72,75.29 26.05,97.46 17.43,22.17 41.69,33.19 72.79,33.19 30.66,0 54.72,-10.93 72.15,-32.87 17.55,-21.95 26.26,-54.52 26.26,-97.78zm650.99 171.61l-57.96 0 0 -195.68c0,-14.7 -0.65,-28.99 -2,-42.74 -1.36,-13.76 -4.2,-24.69 -8.4,-32.87 -4.73,-8.83 -11.56,-15.55 -20.38,-20.06 -8.83,-4.52 -21.53,-6.72 -38.12,-6.72 -16.19,0 -32.36,4.09 -48.54,12.18 -16.17,8.08 -32.35,18.37 -48.63,30.87 0.63,4.73 1.17,10.18 1.58,16.49 0.43,6.2 0.62,12.4 0.62,18.59l0 219.94 -57.97 0 0 -195.68c0,-15.11 -0.62,-29.51 -2,-43.16 -1.35,-13.66 -4.19,-24.58 -8.39,-32.78 -4.74,-8.82 -11.56,-15.43 -20.38,-19.84 -8.83,-4.41 -21.53,-6.61 -38.13,-6.61 -15.75,0 -31.61,3.87 -47.48,11.65 -15.86,7.77 -31.71,17.75 -47.46,29.83l0 256.59 -57.99 0 0 -343.46 57.99 0 0 38.14c18.06,-14.92 36.01,-26.59 53.98,-34.98 17.96,-8.4 37.07,-12.61 57.35,-12.61 23.41,0 43.26,4.95 59.55,14.7 16.28,9.88 28.46,23.44 36.44,40.87 23.42,-19.65 44.75,-33.83 64.08,-42.55 19.22,-8.72 39.8,-13.02 61.76,-13.02 37.81,0 65.65,11.45 83.6,34.24 17.97,22.9 26.88,54.83 26.88,95.79l0 222.88zm206.51 0l-73.74 0 0 -87.6 73.74 0 0 87.6zm437.25 -174.35c0,28.67 -4.11,54.5 -12.18,77.41 -8.1,23 -19.03,42.23 -32.89,57.87 -14.6,16.17 -30.57,28.25 -48.11,36.34 -17.43,8.09 -36.66,12.18 -57.65,12.18 -19.54,0 -36.56,-2.3 -51.16,-6.93 -14.59,-4.63 -28.99,-10.81 -43.16,-18.59l-3.68 16.07 -54.3 0 0 -478.94 57.98 0 0 171.51c16.28,-13.35 33.5,-24.26 51.77,-32.76 18.28,-8.51 38.87,-12.72 61.67,-12.72 40.75,0 72.88,15.56 96.41,46.75 23.53,31.08 35.3,75.1 35.3,131.81zm-59.88 1.25c0,-40.96 -6.82,-72.04 -20.37,-93.16 -13.55,-21.22 -35.4,-31.81 -65.64,-31.81 -16.81,0 -33.93,3.66 -51.17,10.91 -17.22,7.26 -33.28,16.6 -48.09,28.05l0 196.63c16.49,7.34 30.57,12.48 42.43,15.32 11.77,2.84 25.21,4.31 40.23,4.31 32.03,0 57.13,-10.51 75.31,-31.51 18.17,-21.01 27.3,-53.88 27.3,-98.74zm364.26 -107.34l-3.06 0c-8.71,-1.98 -17,-3.47 -25.2,-4.31 -8.09,-0.94 -17.65,-1.35 -28.78,-1.35 -17.85,0 -35.19,3.98 -51.79,11.86 -16.68,7.88 -32.65,18.06 -48.09,30.56l0 243.68 -57.98 0 0 -343.46 57.98 0 0 50.73c22.99,-18.47 43.27,-31.51 60.92,-39.18 17.54,-7.66 35.49,-11.55 53.77,-11.55 10.09,0 17.33,0.21 21.85,0.75 4.51,0.52 11.34,1.46 20.38,2.93l0 59.34z"/>
  <path class="fil5" d="M1372.5 5153.48l0 -844.88 92.97 0 0 364.92 486.94 0 0 -364.92 92.97 0 0 844.88 -92.97 0 0 -391.64 -486.94 0 0 391.64 -92.97 0zm877.23 0l0 -844.88 94.13 0 0 844.88 -94.13 0zm806.33 -524.51l0 -124.16c0,-40.86 -9.49,-68.95 -28.66,-84.06 -19.18,-15.11 -60.63,-22.66 -124.55,-22.66l-261.67 0 0 338.18 261.67 0c62.76,0 104.02,-7.74 123.77,-23.24 19.56,-15.49 29.44,-43.58 29.44,-84.06zm-507.85 524.51l0 -844.88 355.81 0c94.91,0 160.18,14.14 196.01,42.23 35.83,28.08 53.65,78.25 53.65,150.5l0 127.64c0,74.38 -17.62,125.7 -53.07,154.18 -35.44,28.47 -100.91,42.61 -196.59,42.61l-262.84 0 0 327.72 -92.97 0zm761.01 0l0 -844.88 592.69 0 0 89.49 -499.72 0 0 276.59 485.58 0 0 86 -485.58 0 0 304.48 499.72 0 0 88.32 -592.69 0zm1105.39 -755.39l-269.62 0 0 338.18 269.62 0c70.31,0 116.41,-8.71 138.1,-26.15 21.89,-17.43 32.73,-48.61 32.73,-93.55l0 -98.78c0,-45.71 -10.46,-77.09 -31.57,-94.14 -20.92,-17.04 -67.4,-25.56 -139.26,-25.56zm-362.59 755.39l0 -844.88 381.38 0c94.9,0 160.18,14.14 196.01,42.23 35.83,28.08 53.65,78.25 53.65,150.5l0 127.64c0,44.35 -8.91,79.22 -26.92,104.4 -18.01,25.18 -45.33,40.87 -82.13,47.26 40.1,9.49 68.38,26.73 84.65,51.71 16.27,24.99 24.4,64.31 24.4,118.15l0 202.99 -97.62 0 0 -174.13c0,-60.43 -9.49,-101.3 -28.66,-122.79 -19.18,-21.31 -56.56,-31.96 -112.15,-31.96l-299.64 0 0 328.88 -92.97 0zm812.53 0l0 -844.88 527.61 0 0 89.49 -434.64 0 0 276.59 421.67 0 0 86 -421.67 0 0 392.8 -92.97 0zm688.96 0l0 -844.88 94.13 0 0 844.88 -94.13 0zm188.07 0l331.02 -443.74 -298.48 -401.14 107.89 0 238.24 331.41 237.08 -331.41 109.62 0 -299.06 399.98 329.09 444.9 -106.15 0 -269.42 -376.73 -273.1 376.73 -106.73 0zm968.07 -299.83l366.07 0 -168.7 -455.37 -30.02 0 -167.35 455.37zm-206.67 299.83l312.23 -844.88 153.79 0 313.78 844.88 -96.46 0 -80.58 -216.15 -427.47 0 -78.83 216.15 -96.46 0z"/>
  <path class="fil6" d="M5112.83 3292.47l619.26 -433.62c96.95,-67.88 137.45,-187.4 110.57,-296.21l-729.83 729.83z"/>
  <path class="fil6" d="M3542.42 1529.22l-619.24 433.59c-96.94,67.89 -137.44,187.4 -110.56,296.2l729.8 -729.79z"/>
  <path class="fil6" d="M3446 3196.02l433.62 619.27c67.88,96.94 187.4,137.45 296.21,110.56l-729.83 -729.83z"/>
  <path class="fil6" d="M5209.25 1625.6l-433.59 -619.23c-67.89,-96.94 -187.41,-137.45 -296.21,-110.56l729.8 729.79z"/>
  <polygon class="fil7" points="3930.36,1219.01 4327.64,821.73 5916.73,2410.83 5521.9,2805.66 5519.46,2808.11 4768.61,3558.95 4450.79,3241.13 5201.64,2490.29 4883.82,2172.47 4650.2,2406.09 4332.38,2088.27 4566,1854.65 "/>
  <polygon class="fil8" points="3131.84,2017.53 3135.82,2013.56 3885.13,1264.24 4202.95,1582.06 3453.64,2331.38 3771.45,2649.2 4006.62,2414.03 4324.44,2731.85 4089.27,2967.02 4724.91,3602.65 4327.64,3999.93 2738.54,2410.83 "/>
  <path class="fil9" d="M1357.73 5941.3l180.79 -471.25 68.55 0 191.86 471.25 -70.98 0 -54.51 -142.82 -198.44 0 -51.12 142.82 -66.15 0zm135.59 -193.5l160.58 0 -49.14 -130.65c-14.8,-39.7 -26,-72.5 -33.78,-98.39 -6.48,30.7 -15.15,60.88 -26,90.71l-51.66 138.33zm568.32 193.5l0 -43.33c-21.6,33.68 -53.42,50.57 -95.43,50.57 -27.21,0 -52.21,-7.46 -74.92,-22.49 -22.81,-14.92 -40.48,-35.87 -53.08,-62.63 -12.52,-26.88 -18.76,-57.7 -18.76,-92.59 0,-34.01 5.7,-64.82 16.99,-92.57 11.42,-27.65 28.41,-48.93 51.12,-63.64 22.59,-14.8 48.05,-22.15 76.02,-22.15 20.62,0 38.94,4.4 54.95,13.05 16.03,8.66 29.07,20.08 39.16,34l0 -169.47 57.92 0 0 471.25 -53.97 0zm-182.97 -170.35c0,43.66 9.21,76.24 27.75,97.84 18.44,21.61 40.27,32.36 65.38,32.36 25.34,0 46.85,-10.31 64.62,-30.93 17.66,-20.63 26.55,-52.1 26.55,-94.45 0,-46.51 -9.01,-80.74 -27.11,-102.56 -17.97,-21.83 -40.24,-32.69 -66.68,-32.69 -25.78,0 -47.29,10.42 -64.61,31.36 -17.23,20.97 -25.9,53.99 -25.9,99.07zm561.55 59.78l59.89 7.89c-9.33,34.79 -26.77,61.87 -52.23,81.07 -25.44,19.2 -57.92,28.85 -97.5,28.85 -49.81,0 -89.3,-15.36 -118.49,-46.08 -29.17,-30.6 -43.76,-73.71 -43.76,-129.1 0,-57.26 14.69,-101.8 44.2,-133.4 29.52,-31.7 67.79,-47.49 114.86,-47.49 45.52,0 82.72,15.47 111.57,46.51 28.85,31.04 43.31,74.71 43.31,130.99 0,3.39 -0.1,8.54 -0.32,15.34l-254.39 0c2.21,37.4 12.74,66.15 31.82,86.01 18.98,19.85 42.77,29.83 71.2,29.83 21.17,0 39.26,-5.59 54.19,-16.79 15.02,-11.17 26.86,-29.07 35.65,-53.63zm-189.57 -92.8l190.21 0c-2.51,-28.75 -9.87,-50.24 -21.83,-64.62 -18.31,-22.25 -42.23,-33.45 -71.52,-33.45 -26.54,0 -48.81,8.89 -66.91,26.65 -17.99,17.77 -27.96,41.58 -29.95,71.42zm299.59 101.35l57.26 -9.21c3.19,22.93 12.18,40.47 26.88,52.77 14.69,12.18 35.31,18.31 61.65,18.31 26.65,0 46.39,-5.37 59.35,-16.23 12.82,-10.75 19.3,-23.47 19.3,-38.07 0,-13.05 -5.82,-23.36 -17.33,-30.82 -8.13,-5.16 -27.87,-11.63 -59.25,-19.64 -42.33,-10.63 -71.62,-19.84 -88.07,-27.65 -16.35,-7.88 -28.75,-18.64 -37.2,-32.46 -8.44,-13.72 -12.72,-28.97 -12.72,-45.64 0,-15.25 3.51,-29.27 10.43,-42.23 7.01,-12.94 16.45,-23.69 28.41,-32.24 8.99,-6.58 21.27,-12.18 36.74,-16.79 15.58,-4.6 32.14,-6.91 49.91,-6.91 26.77,0 50.24,3.84 70.42,11.62 20.3,7.69 35.21,18.22 44.88,31.38 9.53,13.28 16.23,30.93 19.84,53.09l-56.59 7.9c-2.53,-17.78 -9.99,-31.7 -22.27,-41.69 -12.28,-9.97 -29.62,-14.91 -52.11,-14.91 -26.44,0 -45.42,4.39 -56.71,13.16 -11.3,8.77 -17,19.08 -17,30.82 0,7.46 2.29,14.26 7.03,20.3 4.71,6.14 12.05,11.3 22.15,15.35 5.81,2.21 22.71,7.14 51,14.82 40.8,10.86 69.33,19.85 85.56,26.77 16.23,6.9 28.97,17.11 38.18,30.27 9.33,13.27 13.92,29.72 13.92,49.48 0,19.18 -5.58,37.29 -16.89,54.29 -11.29,17.01 -27.52,30.17 -48.69,39.48 -21.29,9.33 -45.3,13.94 -72.08,13.94 -44.3,0 -78.21,-9.21 -101.46,-27.54 -23.25,-18.42 -38.06,-45.63 -44.54,-81.72zm352.12 -303.4l0 -65.83 57.92 0 0 65.83 -57.92 0zm0 405.42l0 -341.58 57.92 0 0 341.58 -57.92 0zm239.56 0l-128.88 -341.58 61.97 0 73.05 204.57c7.91,22.05 15.25,44.98 21.95,68.78 5.16,-18 12.28,-39.6 21.61,-64.94l75.91 -208.41 59.45 0 -129.32 341.58 -55.74 0zm214.03 -170.79c0,-63.08 17.53,-109.8 52.76,-140.2 29.28,-25.22 65.15,-37.84 107.38,-37.84 46.84,0 85.24,15.35 115.07,46.07 29.74,30.61 44.64,73.06 44.64,127.13 0,43.88 -6.58,78.33 -19.74,103.45 -13.16,25.11 -32.36,44.65 -57.58,58.58 -25.12,13.92 -52.66,20.84 -82.39,20.84 -47.83,0 -86.43,-15.25 -115.94,-45.86 -29.51,-30.6 -44.2,-74.69 -44.2,-132.17zm59.22 0.1c0,43.66 9.55,76.36 28.63,97.96 19.2,21.73 43.22,32.58 72.29,32.58 28.75,0 52.66,-10.85 71.86,-32.69 19.08,-21.83 28.63,-55.06 28.63,-99.72 0,-42.11 -9.65,-74.03 -28.85,-95.64 -19.2,-21.72 -43.11,-32.58 -71.64,-32.58 -29.07,0 -53.09,10.74 -72.29,32.36 -19.08,21.61 -28.63,54.19 -28.63,97.73zm305.51 68.67l57.26 -9.21c3.19,22.93 12.18,40.47 26.88,52.77 14.69,12.18 35.31,18.31 61.65,18.31 26.65,0 46.39,-5.37 59.35,-16.23 12.82,-10.75 19.3,-23.47 19.3,-38.07 0,-13.05 -5.82,-23.36 -17.33,-30.82 -8.13,-5.16 -27.87,-11.63 -59.25,-19.64 -42.33,-10.63 -71.62,-19.84 -88.07,-27.65 -16.35,-7.88 -28.75,-18.64 -37.2,-32.46 -8.44,-13.72 -12.72,-28.97 -12.72,-45.64 0,-15.25 3.51,-29.27 10.43,-42.23 7.01,-12.94 16.46,-23.69 28.41,-32.24 8.99,-6.58 21.27,-12.18 36.74,-16.79 15.59,-4.6 32.14,-6.91 49.91,-6.91 26.77,0 50.24,3.84 70.42,11.62 20.31,7.69 35.21,18.22 44.88,31.38 9.53,13.28 16.23,30.93 19.84,53.09l-56.59 7.9c-2.53,-17.78 -9.99,-31.7 -22.27,-41.69 -12.28,-9.97 -29.61,-14.91 -52.1,-14.91 -26.45,0 -45.42,4.39 -56.72,13.16 -11.3,8.77 -16.99,19.08 -16.99,30.82 0,7.46 2.29,14.26 7.02,20.3 4.71,6.14 12.06,11.3 22.15,15.35 5.82,2.21 22.71,7.14 51,14.82 40.8,10.86 69.33,19.85 85.56,26.77 16.23,6.9 28.97,17.11 38.18,30.27 9.33,13.27 13.93,29.72 13.93,49.48 0,19.18 -5.58,37.29 -16.9,54.29 -11.29,17.01 -27.52,30.17 -48.69,39.48 -21.29,9.33 -45.3,13.94 -72.08,13.94 -44.3,0 -78.21,-9.21 -101.46,-27.54 -23.25,-18.42 -38.06,-45.63 -44.54,-81.72zm767.99 -8.55l59.89 7.89c-9.33,34.79 -26.77,61.87 -52.22,81.07 -25.45,19.2 -57.92,28.85 -97.51,28.85 -49.81,0 -89.3,-15.36 -118.49,-46.08 -29.17,-30.6 -43.75,-73.71 -43.75,-129.1 0,-57.26 14.68,-101.8 44.19,-133.4 29.52,-31.7 67.8,-47.49 114.86,-47.49 45.52,0 82.72,15.47 111.57,46.51 28.85,31.04 43.31,74.71 43.31,130.99 0,3.39 -0.1,8.54 -0.32,15.34l-254.39 0c2.21,37.4 12.74,66.15 31.82,86.01 18.98,19.85 42.77,29.83 71.2,29.83 21.17,0 39.26,-5.59 54.19,-16.79 15.02,-11.17 26.86,-29.07 35.65,-53.63zm-189.57 -92.8l190.21 0c-2.51,-28.75 -9.87,-50.24 -21.82,-64.62 -18.32,-22.25 -42.24,-33.45 -71.53,-33.45 -26.54,0 -48.81,8.89 -66.91,26.65 -17.99,17.77 -27.96,41.58 -29.95,71.42zm492.33 52l58.58 -5.28c2.75,23.7 9.21,43.12 19.42,58.36 10.19,15.15 25.98,27.43 47.39,36.86 21.39,9.33 45.52,14.04 72.28,14.04 23.8,0 44.76,-3.51 62.96,-10.63 18.22,-7.14 31.7,-16.89 40.59,-29.29 8.89,-12.4 13.38,-25.9 13.38,-40.37 0,-14.7 -4.27,-27.54 -12.82,-38.62 -8.57,-10.97 -22.71,-20.18 -42.45,-27.74 -12.62,-4.84 -40.59,-12.52 -83.92,-22.94 -43.34,-10.41 -73.61,-20.18 -90.95,-29.39 -22.49,-11.85 -39.16,-26.56 -50.13,-43.99 -11.08,-17.44 -16.56,-37.08 -16.56,-58.69 0,-23.91 6.81,-46.18 20.29,-66.8 13.5,-20.73 33.14,-36.42 59.12,-47.17 25.9,-10.75 54.75,-16.13 86.45,-16.13 34.89,0 65.71,5.6 92.37,16.89 26.64,11.2 47.16,27.77 61.53,49.7 14.37,21.82 22.05,46.62 23.15,74.27l-59.9 4.59c-3.17,-29.71 -14.03,-52.2 -32.57,-67.35 -18.55,-15.24 -45.96,-22.81 -82.17,-22.81 -37.74,0 -65.26,6.9 -82.48,20.73 -17.23,13.82 -25.9,30.49 -25.9,50.03 0,16.89 6.14,30.82 18.32,41.79 12.08,10.86 43.33,22.15 94.01,33.57 50.68,11.51 85.45,21.5 104.32,30.05 27.31,12.62 47.61,28.53 60.66,47.93 13.06,19.32 19.53,41.59 19.53,66.81 0,25.12 -7.14,48.59 -21.5,70.76 -14.37,22.15 -34.89,39.38 -61.75,51.66 -26.89,12.28 -57.04,18.43 -90.73,18.43 -42.55,0 -78.2,-6.25 -106.95,-18.65 -28.85,-12.4 -51.34,-31.04 -67.69,-56.06 -16.45,-24.9 -25,-53.08 -25.88,-84.56zm685.17 40.8l59.89 7.89c-9.33,34.79 -26.77,61.87 -52.23,81.07 -25.44,19.2 -57.92,28.85 -97.5,28.85 -49.81,0 -89.3,-15.36 -118.49,-46.08 -29.17,-30.6 -43.75,-73.71 -43.75,-129.1 0,-57.26 14.68,-101.8 44.19,-133.4 29.52,-31.7 67.8,-47.49 114.86,-47.49 45.52,0 82.72,15.47 111.57,46.51 28.85,31.04 43.31,74.71 43.31,130.99 0,3.39 -0.1,8.54 -0.32,15.34l-254.39 0c2.21,37.4 12.74,66.15 31.82,86.01 18.98,19.85 42.77,29.83 71.2,29.83 21.17,0 39.26,-5.59 54.19,-16.79 15.02,-11.17 26.86,-29.07 35.65,-53.63zm-189.57 -92.8l190.21 0c-2.51,-28.75 -9.87,-50.24 -21.82,-64.62 -18.32,-22.25 -42.24,-33.45 -71.53,-33.45 -26.54,0 -48.81,8.89 -66.91,26.65 -17.99,17.77 -27.96,41.58 -29.95,71.42zm321.32 203.37l0 -471.25 57.92 0 0 471.25 -57.92 0zm370.63 -42.77c-21.48,18.31 -42.23,31.14 -62.07,38.72 -19.86,7.56 -41.15,11.29 -63.96,11.29 -37.52,0 -66.36,-9.11 -86.55,-27.42 -20.18,-18.22 -30.27,-41.57 -30.27,-69.98 0,-16.69 3.83,-31.94 11.41,-45.74 7.67,-13.83 17.66,-24.8 29.94,-33.14 12.4,-8.33 26.22,-14.69 41.69,-18.98 11.41,-2.95 28.63,-5.8 51.56,-8.67 46.72,-5.48 81.27,-12.16 103.32,-19.84 0.22,-7.91 0.34,-12.94 0.34,-15.03 0,-23.47 -5.5,-40.04 -16.45,-49.7 -14.81,-13.05 -36.86,-19.52 -66.05,-19.52 -27.3,0 -47.49,4.82 -60.44,14.37 -13.05,9.55 -22.6,26.44 -28.85,50.78l-56.6 -7.89c5.15,-24.25 13.6,-43.87 25.46,-58.8 11.83,-14.91 28.95,-26.32 51.32,-34.45 22.27,-8 48.27,-12.06 77.68,-12.06 29.17,0 52.97,3.4 71.3,10.32 18.2,6.9 31.7,15.46 40.25,25.88 8.56,10.43 14.58,23.59 18.09,39.5 1.87,9.87 2.87,27.63 2.87,53.19l0 76.79c0,53.63 1.2,87.54 3.61,101.9 2.31,14.37 7.13,28.09 14.15,41.25l-60.55 0c-5.82,-12.18 -9.55,-26.44 -11.2,-42.77zm-4.59 -128.36c-21.07,8.56 -52.66,15.81 -94.78,21.73 -23.91,3.4 -40.8,7.24 -50.67,11.51 -9.88,4.28 -17.46,10.53 -22.83,18.66 -5.38,8.22 -8.11,17.33 -8.11,27.42 0,15.25 5.82,28.07 17.55,38.28 11.74,10.2 28.85,15.35 51.33,15.35 22.27,0 42.13,-4.81 59.56,-14.58 17.33,-9.65 30.17,-22.93 38.3,-39.71 6.24,-13.06 9.31,-32.26 9.31,-57.6l0.34 -21.06zm147.54 171.13l0 -341.58 52 0 0 48.47c25,-37.18 61.21,-55.72 108.48,-55.72 20.62,0 39.5,3.74 56.71,11.08 17.23,7.34 30.18,17.11 38.72,29.07 8.57,11.96 14.59,26.22 18,42.67 2.08,10.76 3.19,29.51 3.19,56.28l0 209.73 -57.92 0 0 -207.55c0,-23.57 -2.21,-41.24 -6.7,-52.86 -4.5,-11.64 -12.5,-20.96 -23.92,-27.97 -11.41,-6.92 -24.89,-10.43 -40.26,-10.43 -24.56,0 -45.74,7.79 -63.62,23.47 -17.88,15.59 -26.76,45.31 -26.76,88.96l0 186.38 -57.92 0zm491.77 -51.66l7.9 51.12c-16.23,3.39 -30.83,5.15 -43.55,5.15 -20.95,0 -37.18,-3.29 -48.82,-9.99 -11.51,-6.68 -19.64,-15.35 -24.35,-26.22 -4.72,-10.85 -7.02,-33.66 -7.02,-68.45l0 -196.79 -42.78 0 0 -44.74 42.78 0 0 -84.47 57.92 -34.78 0 119.25 57.92 0 0 44.74 -57.92 0 0 200.1c0,16.55 0.98,27.19 3.07,31.92 1.98,4.71 5.27,8.44 9.87,11.29 4.61,2.73 11.19,4.18 19.76,4.18 6.36,0 14.8,-0.78 25.22,-2.31zm290.16 -58.91l59.88 7.89c-9.33,34.79 -26.76,61.87 -52.22,81.07 -25.44,19.2 -57.92,28.85 -97.5,28.85 -49.82,0 -89.3,-15.36 -118.49,-46.08 -29.17,-30.6 -43.76,-73.71 -43.76,-129.1 0,-57.26 14.69,-101.8 44.2,-133.4 29.51,-31.7 67.79,-47.49 114.86,-47.49 45.52,0 82.71,15.47 111.56,46.51 28.85,31.04 43.32,74.71 43.32,130.99 0,3.39 -0.1,8.54 -0.32,15.34l-254.39 0c2.2,37.4 12.74,66.15 31.82,86.01 18.97,19.85 42.77,29.83 71.2,29.83 21.16,0 39.26,-5.59 54.18,-16.79 15.03,-11.17 26.87,-29.07 35.66,-53.63zm-189.57 -92.8l190.21 0c-2.51,-28.75 -9.87,-50.24 -21.83,-64.62 -18.32,-22.25 -42.23,-33.45 -71.52,-33.45 -26.54,0 -48.81,8.89 -66.91,26.65 -17.99,17.77 -27.97,41.58 -29.95,71.42zm299.59 101.35l57.26 -9.21c3.19,22.93 12.17,40.47 26.88,52.77 14.69,12.18 35.31,18.31 61.65,18.31 26.65,0 46.39,-5.37 59.34,-16.23 12.83,-10.75 19.31,-23.47 19.31,-38.07 0,-13.05 -5.82,-23.36 -17.34,-30.82 -8.12,-5.16 -27.86,-11.63 -59.24,-19.64 -42.33,-10.63 -71.62,-19.84 -88.08,-27.65 -16.35,-7.88 -28.74,-18.64 -37.19,-32.46 -8.45,-13.72 -12.72,-28.97 -12.72,-45.64 0,-15.25 3.51,-29.27 10.43,-42.23 7,-12.94 16.45,-23.69 28.41,-32.24 8.99,-6.58 21.27,-12.18 36.73,-16.79 15.59,-4.6 32.14,-6.91 49.92,-6.91 26.76,0 50.24,3.84 70.42,11.62 20.3,7.69 35.21,18.22 44.88,31.38 9.53,13.28 16.23,30.93 19.84,53.09l-56.6 7.9c-2.52,-17.78 -9.99,-31.7 -22.27,-41.69 -12.28,-9.97 -29.61,-14.91 -52.1,-14.91 -26.44,0 -45.42,4.39 -56.71,13.16 -11.3,8.77 -17,19.08 -17,30.82 0,7.46 2.29,14.26 7.02,20.3 4.72,6.14 12.06,11.3 22.15,15.35 5.82,2.21 22.71,7.14 51,14.82 40.81,10.86 69.34,19.85 85.57,26.77 16.23,6.9 28.97,17.11 38.18,30.27 9.33,13.27 13.92,29.72 13.92,49.48 0,19.18 -5.58,37.29 -16.89,54.29 -11.3,17.01 -27.53,30.17 -48.69,39.48 -21.29,9.33 -45.31,13.94 -72.09,13.94 -44.3,0 -78.2,-9.21 -101.45,-27.54 -23.26,-18.42 -38.06,-45.63 -44.54,-81.72z"/>
  <path class="fil4" d="M10777.36 8271.17l-247.67 0 0 -46.64 95.16 0 0 -307.53 -95.16 0 0 -41.6c12.92,0 26.68,-1.04 41.48,-3.25 14.71,-2.09 25.85,-5.26 33.41,-9.45 9.45,-5.15 16.92,-11.67 22.26,-19.55 5.46,-7.96 8.63,-18.68 9.47,-32.03l47.78 0 0 413.41 93.27 0 0 46.64zm426.42 -256.49c0,40.02 -4.5,76.35 -13.65,109.13 -9.12,32.65 -23,60.5 -41.48,83.49 -18.59,23.42 -42.01,41.5 -70.16,54.2 -28.05,12.72 -61.13,19.12 -99.06,19.12 -10.7,0 -20.79,-0.52 -30.24,-1.68 -9.45,-1.16 -17.85,-2.95 -25.21,-5.47l0 -59.02 3.06 0c5.98,3.14 14.38,6.09 25.2,8.93 10.92,2.84 22.99,4.31 36.34,4.31 45.26,0 80.76,-13.67 106.5,-40.86 25.74,-27.31 40.64,-64.91 44.75,-112.81 -19.01,11.56 -36.98,19.74 -53.79,24.69 -16.79,4.93 -35.17,7.34 -55.13,7.34 -18.81,0 -35.92,-1.89 -51.16,-5.55 -15.32,-3.68 -30.67,-10.83 -46,-21.55 -18.06,-12.48 -31.72,-28.45 -40.85,-47.78 -9.15,-19.22 -13.67,-42.34 -13.67,-69.33 0,-46.73 15.46,-84.85 46.22,-114.27 30.78,-29.3 68.38,-44 112.7,-44 22.17,0 42.64,3.46 61.56,10.29 18.9,6.93 35.39,17.22 49.57,30.97 17.43,17.03 30.89,38.98 40.34,65.87 9.45,26.77 14.16,61.45 14.16,103.98zm-62.38 -13.56c0,-31.6 -3.25,-56.91 -9.88,-76.13 -6.5,-19.22 -15.54,-34.03 -27.1,-44.64 -9.55,-9.26 -19.95,-15.76 -31.08,-19.76 -11.02,-3.99 -23.01,-5.99 -36.03,-5.99 -29.51,0 -52.82,9.15 -69.95,27.53 -17.12,18.38 -25.73,44.21 -25.73,77.41 0,19.43 2.73,35.19 8.29,47.48 5.57,12.18 14.92,22.88 28.05,32.03 9.25,6.41 19.32,10.61 30.45,12.7 11.04,2.21 23.42,3.27 36.98,3.27 15.97,0 32.14,-2.11 48.63,-6.42 16.38,-4.3 31.83,-10.5 46.1,-18.7 0.22,-4.3 0.54,-8.5 0.84,-12.7 0.32,-4.2 0.43,-9.56 0.43,-16.08zm368.46 -208.9l-220.78 572.21 -53.36 0 219.83 -572.21 54.31 0zm380.73 222.46c0,40.02 -4.5,76.35 -13.65,109.13 -9.13,32.65 -23.01,60.5 -41.48,83.49 -18.6,23.42 -42.02,41.5 -70.17,54.2 -28.04,12.72 -61.13,19.12 -99.05,19.12 -10.7,0 -20.8,-0.52 -30.25,-1.68 -9.45,-1.16 -17.84,-2.95 -25.2,-5.47l0 -59.02 3.05 0c5.99,3.14 14.38,6.09 25.21,8.93 10.91,2.84 22.99,4.31 36.33,4.31 45.27,0 80.77,-13.67 106.51,-40.86 25.74,-27.31 40.64,-64.91 44.75,-112.81 -19.01,11.56 -36.98,19.74 -53.79,24.69 -16.79,4.93 -35.18,7.34 -55.13,7.34 -18.81,0 -35.92,-1.89 -51.16,-5.55 -15.33,-3.68 -30.67,-10.83 -46,-21.55 -18.06,-12.48 -31.73,-28.45 -40.85,-47.78 -9.15,-19.22 -13.67,-42.34 -13.67,-69.33 0,-46.73 15.45,-84.85 46.21,-114.27 30.78,-29.3 68.39,-44 112.71,-44 22.16,0 42.64,3.46 61.55,10.29 18.9,6.93 35.39,17.22 49.58,30.97 17.43,17.03 30.88,38.98 40.33,65.87 9.45,26.77 14.17,61.45 14.17,103.98zm-62.38 -13.56c0,-31.6 -3.25,-56.91 -9.88,-76.13 -6.5,-19.22 -15.54,-34.03 -27.1,-44.64 -9.56,-9.26 -19.95,-15.76 -31.08,-19.76 -11.03,-3.99 -23.01,-5.99 -36.03,-5.99 -29.52,0 -52.83,9.15 -69.96,27.53 -17.11,18.38 -25.72,44.21 -25.72,77.41 0,19.43 2.73,35.19 8.29,47.48 5.57,12.18 14.91,22.88 28.04,32.03 9.26,6.41 19.33,10.61 30.46,12.7 11.04,2.21 23.42,3.27 36.98,3.27 15.97,0 32.13,-2.11 48.62,-6.42 16.38,-4.3 31.84,-10.5 46.11,-18.7 0.21,-4.3 0.54,-8.5 0.84,-12.7 0.32,-4.2 0.43,-9.56 0.43,-16.08zm462.97 13.56c0,40.02 -4.5,76.35 -13.65,109.13 -9.12,32.65 -23,60.5 -41.48,83.49 -18.59,23.42 -42.01,41.5 -70.16,54.2 -28.05,12.72 -61.13,19.12 -99.06,19.12 -10.7,0 -20.79,-0.52 -30.24,-1.68 -9.45,-1.16 -17.85,-2.95 -25.21,-5.47l0 -59.02 3.06 0c5.98,3.14 14.38,6.09 25.2,8.93 10.92,2.84 22.99,4.31 36.34,4.31 45.26,0 80.76,-13.67 106.5,-40.86 25.74,-27.31 40.64,-64.91 44.75,-112.81 -19.01,11.56 -36.98,19.74 -53.79,24.69 -16.79,4.93 -35.17,7.34 -55.13,7.34 -18.81,0 -35.92,-1.89 -51.16,-5.55 -15.32,-3.68 -30.67,-10.83 -46,-21.55 -18.06,-12.48 -31.72,-28.45 -40.85,-47.78 -9.15,-19.22 -13.67,-42.34 -13.67,-69.33 0,-46.73 15.46,-84.85 46.22,-114.27 30.78,-29.3 68.38,-44 112.7,-44 22.17,0 42.64,3.46 61.56,10.29 18.9,6.93 35.39,17.22 49.57,30.97 17.43,17.03 30.89,38.98 40.34,65.87 9.45,26.77 14.16,61.45 14.16,103.98zm-62.38 -13.56c0,-31.6 -3.25,-56.91 -9.88,-76.13 -6.5,-19.22 -15.54,-34.03 -27.1,-44.64 -9.55,-9.26 -19.95,-15.76 -31.08,-19.76 -11.02,-3.99 -23.01,-5.99 -36.03,-5.99 -29.51,0 -52.82,9.15 -69.95,27.53 -17.12,18.38 -25.73,44.21 -25.73,77.41 0,19.43 2.73,35.19 8.29,47.48 5.57,12.18 14.92,22.88 28.05,32.03 9.25,6.41 19.32,10.61 30.45,12.7 11.04,2.21 23.42,3.27 36.98,3.27 15.97,0 32.14,-2.11 48.63,-6.42 16.38,-4.3 31.83,-10.5 46.1,-18.7 0.22,-4.3 0.54,-8.5 0.84,-12.7 0.32,-4.2 0.43,-9.56 0.43,-16.08zm466.76 142.43c0,39.71 -15.43,72.58 -46.21,98.95 -30.89,26.26 -69.63,39.39 -116.38,39.39 -49.58,0 -89.07,-12.83 -118.48,-38.55 -29.4,-25.64 -44.1,-58.51 -44.1,-98.52 0,-25.42 7.34,-48.54 22.15,-69.12 14.81,-20.68 35.6,-37.08 62.51,-49.16l0 -1.89c-24.59,-13.13 -42.65,-27.51 -54.42,-43.05 -11.75,-15.65 -17.65,-35.19 -17.65,-58.51 0,-34.56 14.08,-63.34 42.34,-86.33 28.24,-23.01 64.06,-34.46 107.65,-34.46 45.58,0 82.03,11.04 109.23,32.98 27.21,21.95 40.77,49.89 40.77,83.7 0,20.82 -6.41,41.18 -19.22,61.24 -12.83,19.96 -31.62,35.62 -56.42,46.97l0 1.76c28.57,12.4 50.41,27.53 65.55,45.59 15.13,18.08 22.68,41.07 22.68,69.01zm-73.1 -224.24c0,-21.96 -8.39,-39.61 -25.2,-52.63 -16.81,-13.13 -38.23,-19.63 -64.29,-19.63 -25.62,0 -46.63,6.2 -63.01,18.59 -16.4,12.29 -24.58,28.98 -24.58,49.99 0,14.81 4.09,27.63 12.4,38.44 8.29,10.82 20.79,20.49 37.49,28.88 7.56,3.79 18.48,8.61 32.66,14.6 14.18,6 27.94,10.93 41.5,14.83 19.95,-13.56 33.81,-27.75 41.48,-42.34 7.66,-14.6 11.55,-31.51 11.55,-50.73zm9.45 230.03c0,-18.81 -4.09,-33.94 -12.39,-45.38 -8.29,-11.34 -24.48,-22.79 -48.63,-34.35 -9.56,-4.52 -20.17,-8.72 -31.51,-12.61 -11.45,-3.88 -26.67,-9.34 -45.7,-16.27 -18.38,10.07 -33.08,23.63 -44.21,40.96 -11.13,17.22 -16.7,36.65 -16.7,58.39 0,27.73 9.45,50.63 28.47,68.69 19.01,18.08 43.16,27.1 72.37,27.1 29.83,0 53.66,-7.66 71.53,-23.1 17.84,-15.34 26.77,-36.55 26.77,-63.43zm468.03 -27.1c0,46.62 -15.34,84.76 -46,114.16 -30.67,29.52 -68.38,44.22 -112.91,44.22 -22.58,0 -43.07,-3.47 -61.56,-10.51 -18.47,-6.93 -34.76,-17.32 -48.95,-31.08 -17.63,-17.02 -31.29,-39.6 -40.85,-67.65 -9.56,-28.13 -14.27,-61.97 -14.27,-101.55 0,-40.66 4.41,-76.68 13.13,-108.08 8.71,-31.42 22.57,-59.25 41.69,-83.73 18.06,-23.2 41.28,-41.26 69.85,-54.28 28.56,-13.03 61.75,-19.55 99.68,-19.55 12.18,0 22.25,0.52 30.56,1.57 8.18,0.95 16.49,2.84 24.88,5.47l0 58.5 -3.03 0c-5.79,-3.05 -14.4,-5.87 -26.07,-8.5 -11.54,-2.73 -23.41,-4.11 -35.49,-4.11 -44.02,0 -79.19,13.78 -105.45,41.39 -26.26,27.51 -41.5,64.71 -45.8,111.65 17.24,-10.5 34.13,-18.38 50.94,-23.85 16.71,-5.45 36.04,-8.18 57.99,-8.18 19.42,0 36.66,1.79 51.47,5.36 14.91,3.66 30.13,10.81 45.67,21.74 18.08,12.49 31.73,28.35 40.86,47.46 9.14,19.12 13.66,42.23 13.66,69.55zm-62.39 2.41c0,-19.01 -2.83,-34.66 -8.51,-47.16 -5.57,-12.4 -14.91,-23.22 -27.83,-32.46 -9.45,-6.5 -19.85,-10.72 -31.4,-12.81 -11.45,-2 -23.42,-3.05 -36.04,-3.05 -17.43,0 -33.6,2 -48.62,6.09 -14.92,4.11 -30.35,10.4 -46.11,19.01 -0.43,4.52 -0.73,8.82 -0.94,13.04 -0.22,4.09 -0.32,9.34 -0.32,15.75 0,32.25 3.35,57.65 9.98,76.25 6.72,18.7 15.86,33.4 27.62,44.21 9.34,9.04 19.65,15.56 30.56,19.76 11.03,4.19 23.01,6.3 35.93,6.3 29.72,0 53.14,-9.04 70.17,-27.1 17,-18.08 25.51,-44.01 25.51,-77.83zm457.31 -243.57l-207.44 390.09 -66.06 0 220.78 -404.58 -261.11 0 0 -53.57 313.83 0 0 68.06zm278.97 216.79l-192.21 0 0 -54.84 192.21 0 0 54.84zm402.79 27.73c0,21.31 -3.87,41.8 -11.66,61.23 -7.88,19.42 -18.47,35.91 -32.03,49.15 -14.81,14.39 -32.46,25.42 -52.82,33.08 -20.49,7.68 -44.13,11.56 -71.01,11.56 -24.99,0 -49.16,-2.63 -72.37,-7.88 -23.2,-5.25 -42.85,-11.56 -58.82,-19.01l0 -65.11 4.3 0c16.81,10.81 36.55,20.06 59.15,27.62 22.58,7.66 44.84,11.45 66.58,11.45 14.61,0 28.67,-2.11 42.33,-6.2 13.65,-4.09 25.84,-11.24 36.55,-21.53 9.04,-8.82 15.87,-19.43 20.48,-31.72 4.62,-12.29 6.94,-26.58 6.94,-42.75 0,-15.86 -2.73,-29.21 -8.19,-40.12 -5.47,-10.83 -13.03,-19.55 -22.69,-26.16 -10.61,-7.77 -23.64,-13.23 -38.96,-16.48 -15.35,-3.17 -32.46,-4.74 -51.38,-4.74 -18.06,0 -35.49,1.27 -52.2,3.79 -16.81,2.52 -31.19,5.04 -43.37,7.56l0 -236.32 276.03 0 0 53.57 -216.79 0 0 122.15c8.82,-0.75 17.86,-1.37 27.1,-1.78 9.34,-0.43 17.32,-0.65 24.15,-0.65 24.79,0 46.64,2.11 65.33,6.31 18.7,4.2 35.92,11.66 51.57,22.27 16.4,11.35 29.2,25.84 38.24,43.7 9.03,17.85 13.54,40.21 13.54,67.01zm411.32 -3.36c0,46.62 -15.35,84.76 -46,114.16 -30.67,29.52 -68.38,44.22 -112.92,44.22 -22.58,0 -43.07,-3.47 -61.56,-10.51 -18.47,-6.93 -34.76,-17.32 -48.94,-31.08 -17.64,-17.02 -31.3,-39.6 -40.86,-67.65 -9.56,-28.13 -14.27,-61.97 -14.27,-101.55 0,-40.66 4.41,-76.68 13.13,-108.08 8.72,-31.42 22.58,-59.25 41.69,-83.73 18.06,-23.2 41.29,-41.26 69.85,-54.28 28.56,-13.03 61.75,-19.55 99.68,-19.55 12.18,0 22.26,0.52 30.56,1.57 8.19,0.95 16.49,2.84 24.89,5.47l0 58.5 -3.04 0c-5.79,-3.05 -14.4,-5.87 -26.06,-8.5 -11.54,-2.73 -23.42,-4.11 -35.5,-4.11 -44.01,0 -79.19,13.78 -105.45,41.39 -26.26,27.51 -41.49,64.71 -45.8,111.65 17.24,-10.5 34.14,-18.38 50.95,-23.85 16.7,-5.45 36.03,-8.18 57.98,-8.18 19.42,0 36.66,1.79 51.47,5.36 14.92,3.66 30.14,10.81 45.68,21.74 18.07,12.49 31.72,28.35 40.85,47.46 9.15,19.12 13.67,42.23 13.67,69.55zm-62.4 2.41c0,-19.01 -2.82,-34.66 -8.5,-47.16 -5.58,-12.4 -14.92,-23.22 -27.84,-32.46 -9.45,-6.5 -19.84,-10.72 -31.4,-12.81 -11.45,-2 -23.42,-3.05 -36.03,-3.05 -17.44,0 -33.6,2 -48.63,6.09 -14.91,4.11 -30.35,10.4 -46.1,19.01 -0.43,4.52 -0.74,8.82 -0.95,13.04 -0.21,4.09 -0.32,9.34 -0.32,15.75 0,32.25 3.36,57.65 9.98,76.25 6.72,18.7 15.87,33.4 27.62,44.21 9.34,9.04 19.65,15.56 30.57,19.76 11.02,4.19 23.01,6.3 35.92,6.3 29.73,0 53.15,-9.04 70.17,-27.1 17.01,-18.08 25.51,-44.01 25.51,-77.83zm452.27 0.95c0,21.31 -3.87,41.8 -11.66,61.23 -7.88,19.42 -18.47,35.91 -32.03,49.15 -14.81,14.39 -32.46,25.42 -52.83,33.08 -20.49,7.68 -44.12,11.56 -71,11.56 -25,0 -49.16,-2.63 -72.37,-7.88 -23.2,-5.25 -42.85,-11.56 -58.82,-19.01l0 -65.11 4.3 0c16.81,10.81 36.55,20.06 59.15,27.62 22.58,7.66 44.83,11.45 66.58,11.45 14.61,0 28.67,-2.11 42.33,-6.2 13.65,-4.09 25.83,-11.24 36.55,-21.53 9.04,-8.82 15.86,-19.43 20.47,-31.72 4.63,-12.29 6.95,-26.58 6.95,-42.75 0,-15.86 -2.73,-29.21 -8.2,-40.12 -5.46,-10.83 -13.02,-19.55 -22.68,-26.16 -10.62,-7.77 -23.64,-13.23 -38.97,-16.48 -15.34,-3.17 -32.45,-4.74 -51.37,-4.74 -18.06,0 -35.5,1.27 -52.2,3.79 -16.81,2.52 -31.19,5.04 -43.37,7.56l0 -236.32 276.03 0 0 53.57 -216.8 0 0 122.15c8.83,-0.75 17.87,-1.37 27.1,-1.78 9.35,-0.43 17.33,-0.65 24.16,-0.65 24.79,0 46.64,2.11 65.32,6.31 18.71,4.2 35.93,11.66 51.58,22.27 16.39,11.35 29.2,25.84 38.24,43.7 9.02,17.85 13.54,40.21 13.54,67.01zm415.08 16.38l-68.06 0 0 129.19 -59.23 0 0 -129.19 -219.3 0 0 -70.69 221.82 -258.27 56.71 0 0 279.8 68.06 0 0 49.16zm-127.29 -49.16l0 -206.28 -177.19 206.28 177.19 0z"/>
  <path class="fil4" d="M9862.83 8295.26c-58.05,0 -112.19,-16.74 -157.88,-45.64l-4.18 1.15 -112.95 30.57 34.06 -110.29c-34.51,-48.38 -54.82,-107.62 -54.82,-171.56 0,-163.36 132.42,-295.79 295.77,-295.79 163.34,0 295.78,132.43 295.78,295.79 0,163.33 -132.44,295.77 -295.78,295.77zm0 -649.27c-194.91,0 -353.47,158.57 -353.47,353.5 0,64.11 16.99,125.91 49.4,180.35l-57 184.6 195.08 -52.83c50.93,27.12 107.79,41.35 165.99,41.35 194.9,0 353.48,-158.57 353.48,-353.47 0,-194.93 -158.58,-353.5 -353.48,-353.5z"/>
  <path class="fil4" d="M9796.15 7916.85c0,0 10.44,15.96 0,28.85 -10.43,12.9 -19.03,22.71 -19.03,22.71 0,0 -9.2,6.76 0,20.25 9.22,13.51 47.27,71.84 112.95,97.62 0,0 20.25,8.6 28.87,-11.05l20.85 -27c0,0 4.92,-6.76 20.88,0 15.96,6.74 66.3,31.29 66.3,31.29 0,0 9.21,3.07 7.37,16.57 -1.84,13.52 -6.75,65.69 -79.19,71.22 0,0 -69.98,2.46 -148.56,-58.32 -49.11,-37.99 -83.87,-85.31 -103.04,-118.33 -1.27,-2.19 -2.48,-4.33 -3.61,-6.4 -9.98,-20.15 -17.36,-42.25 -16.36,-63.8 0,-2.45 0.08,-5.03 0.26,-7.67 1.59,-23.56 11.18,-51.66 46.64,-67.78 0,0 28.84,-4.28 33.76,0l31.91 71.84z"/>
 </g>
</svg>
